<svg width="19" height="18" viewBox="0 0 19 18" fill="none" xmlns="http://www.w3.org/2000/svg">
<path d="M9.58207 17.4114C9.28207 17.4114 8.98207 17.3114 8.78207 17.0114C3.38207 10.9114 2.08207 9.51142 1.78207 9.11142C1.08207 8.21142 0.682068 7.01142 0.682068 5.81142C0.682068 2.81142 3.08207 0.411423 6.18207 0.411423C7.48207 0.411423 8.68207 0.911423 9.68207 1.71142C10.6821 0.911423 11.9821 0.411423 13.1821 0.411423C16.1821 0.411423 18.6821 2.81142 18.6821 5.81142C18.6821 7.11142 18.1821 8.31142 17.3821 9.21142L10.3821 17.1114C10.1821 17.3114 9.98207 17.4114 9.58207 17.4114ZM3.58207 7.91142C3.88207 8.31142 7.08207 11.9114 9.68207 14.8114L15.8821 7.81142C16.3821 7.31142 16.5821 6.61142 16.5821 5.81142C16.5821 4.01142 15.0821 2.51142 13.2821 2.51142C12.2821 2.51142 11.2821 3.01142 10.5821 3.81142C10.2821 4.11142 9.98207 4.21142 9.68207 4.21142C9.38207 4.21142 9.08207 4.01142 8.88207 3.81142C8.18207 3.01142 7.18207 2.51142 6.18207 2.51142C4.38207 2.51142 2.88207 4.01142 2.88207 5.81142C2.78207 6.71142 3.18207 7.41142 3.58207 7.91142C3.48207 7.91142 3.48207 7.91142 3.58207 7.91142Z" fill="#756257"/>
</svg>
